<svg xmlns="http://www.w3.org/2000/svg" width="24" height="24" enable-background="new 0 0 24 24" viewBox="0 0 24 24" id="exclamation"><path d="M11.917,22.986c6.07,0,11.008-4.938,11.008-11.008c0-6.07-4.938-11.009-11.008-11.009c-6.07,0-11.009,4.938-11.009,11.009C0.909,18.048,5.847,22.986,11.917,22.986z M11.917,3.157c4.865,0,8.82,3.957,8.82,8.821c0,4.863-3.955,8.82-8.82,8.82c-4.864,0-8.821-3.957-8.821-8.82C3.097,7.114,7.054,3.157,11.917,3.157z"></path><path d="M11.917 14.326c.604 0 1.094-.489 1.094-1.095V7.397c0-.604-.491-1.094-1.094-1.094s-1.094.49-1.094 1.094v5.834C10.823 13.837 11.314 14.326 11.917 14.326zM11.917 17.652c.604 0 1.094-.489 1.094-1.094v-.182c0-.604-.491-1.094-1.094-1.094s-1.094.489-1.094 1.094v.182C10.823 17.163 11.314 17.652 11.917 17.652z"></path></svg>